<svg xmlns="http://www.w3.org/2000/svg" viewBox="0 0 32 32" fill="none">
  <defs>
    <linearGradient id="g" x1="4" y1="4" x2="28" y2="28" gradientUnits="userSpaceOnUse">
      <stop offset="0%" stop-color="#00B8E6"/>
      <stop offset="55%" stop-color="#1A6FD4"/>
      <stop offset="100%" stop-color="#003399"/>
    </linearGradient>
  </defs>
  <rect width="32" height="32" rx="6" fill="#071629"/>
  <path
    d="M7 10h18c1.1 0 2 .9 2 2v8c0 1.1-.9 2-2 2H7c-1.1 0-2-.9-2-2v-8c0-1.1.9-2 2-2Z"
    stroke="url(#g)"
    stroke-width="1.5"
    stroke-linejoin="round"
  />
  <path d="M5 14h2v4H5zM25 14h2v4h-2z" fill="url(#g)"/>
  <path
    d="M10 19c3-5 5-5 8 0s5 5 8 0"
    stroke="url(#g)"
    stroke-width="1.5"
    stroke-linecap="round"
  />
  <circle cx="10" cy="19" r="1.25" fill="url(#g)"/>
  <circle cx="18" cy="14" r="1.25" fill="url(#g)"/>
  <circle cx="26" cy="19" r="1.25" fill="url(#g)"/>
</svg>
