<svg shape-rendering="geometricPrecision" baseProfile="tiny" height="460px" version="1.2" viewBox="0 0 558 460" width="558px" xmlns="http://www.w3.org/2000/svg" xmlns:ev="http://www.w3.org/2001/xml-events" xmlns:xlink="http://www.w3.org/1999/xlink"><defs><linearGradient id="outerGradient" x1="0%" x2="100%" y1="50%" y2="50%"><stop offset="0" stop-color="#23c9db" /><stop offset="0.45" stop-color="#15a5d5" /><stop offset="1" stop-color="#075bb7" /></linearGradient><linearGradient id="innerGradient" x1="0%" x2="100%" y1="50%" y2="50%"><stop offset="0" stop-color="#06479b" /><stop offset="0.55" stop-color="#0c73bd" /><stop offset="1" stop-color="#22d5df" /></linearGradient></defs><path d="M 500.00,75.00 L 490.00,65.00 L 479.00,60.00 L 397.00,60.00 L 395.00,58.00 L 395.00,28.00 L 388.00,20.00 L 377.00,20.00 L 325.00,50.00 L 300.00,58.00 L 290.00,58.00 L 287.00,60.00 L 148.00,60.00 L 120.00,68.00 L 96.00,82.00 L 75.00,103.00 L 60.00,129.00 L 52.00,162.00 L 52.00,190.00 L 50.00,192.00 L 29.00,192.00 L 20.00,198.00 L 20.00,260.00 L 26.00,265.00 L 50.00,265.00 L 52.00,267.00 L 52.00,370.00 L 58.00,384.00 L 67.00,393.00 L 78.00,398.00 L 160.00,398.00 L 162.00,400.00 L 162.00,431.00 L 169.00,439.00 L 178.00,439.00 L 233.00,408.00 L 255.00,401.00 L 283.00,398.00 L 408.00,398.00 L 435.00,391.00 L 454.00,381.00 L 470.00,368.00 L 482.00,355.00 L 495.00,333.00 L 503.00,309.00 L 505.00,267.00 L 507.00,265.00 L 532.00,265.00 L 537.00,260.00 L 537.00,198.00 L 533.00,194.00 L 507.00,194.00 L 505.00,192.00 L 505.00,89.00 Z M 460.00,106.00 L 460.00,296.00 L 458.00,299.00 L 456.00,310.00 L 444.00,330.00 L 428.00,344.00 L 417.00,350.00 L 407.00,352.00 L 404.00,354.00 L 273.00,354.00 L 271.00,356.00 L 255.00,356.00 L 252.00,358.00 L 244.00,358.00 L 241.00,360.00 L 236.00,360.00 L 233.00,362.00 L 223.00,364.00 L 221.00,366.00 L 204.00,372.00 L 167.00,393.00 L 165.00,391.00 L 165.00,384.00 L 160.00,373.00 L 147.00,360.00 L 130.00,354.00 L 99.00,354.00 L 97.00,352.00 L 97.00,163.00 L 99.00,160.00 L 99.00,154.00 L 101.00,152.00 L 105.00,140.00 L 116.00,125.00 L 127.00,116.00 L 142.00,108.00 L 159.00,104.00 L 286.00,104.00 L 310.00,101.00 L 323.00,98.00 L 350.00,88.00 L 388.00,66.00 L 392.00,68.00 L 392.00,74.00 L 397.00,85.00 L 410.00,98.00 L 418.00,102.00 L 427.00,104.00 L 458.00,104.00 Z " fill="url(#outerGradient)" fill-rule="evenodd" stroke="none" /><path d="M 148.00,268.00 L 150.00,270.00 L 150.00,274.00 L 152.00,278.00 L 160.00,286.00 L 167.00,289.00 L 178.00,289.00 L 182.00,288.00 L 190.00,283.00 L 202.00,263.00 L 216.00,251.00 L 226.00,246.00 L 236.00,243.00 L 253.00,243.00 L 268.00,248.00 L 280.00,256.00 L 287.00,263.00 L 296.00,279.00 L 303.00,286.00 L 311.00,289.00 L 322.00,289.00 L 329.00,286.00 L 338.00,277.00 L 339.00,271.00 L 341.00,268.00 L 341.00,260.00 L 343.00,257.00 L 345.00,249.00 L 349.00,242.00 L 359.00,231.00 L 367.00,225.00 L 378.00,220.00 L 393.00,217.00 L 406.00,217.00 L 411.00,215.00 L 418.00,209.00 L 421.00,204.00 L 421.00,200.00 L 423.00,198.00 L 423.00,189.00 L 420.00,181.00 L 411.00,172.00 L 406.00,170.00 L 391.00,170.00 L 386.00,172.00 L 376.00,182.00 L 374.00,187.00 L 374.00,196.00 L 372.00,199.00 L 372.00,203.00 L 364.00,218.00 L 351.00,231.00 L 343.00,236.00 L 335.00,238.00 L 333.00,240.00 L 324.00,240.00 L 321.00,242.00 L 318.00,242.00 L 315.00,240.00 L 305.00,240.00 L 303.00,238.00 L 299.00,238.00 L 297.00,236.00 L 291.00,234.00 L 284.00,229.00 L 274.00,219.00 L 265.00,202.00 L 265.00,197.00 L 263.00,194.00 L 263.00,186.00 L 256.00,175.00 L 247.00,170.00 L 231.00,170.00 L 229.00,172.00 L 225.00,173.00 L 218.00,180.00 L 218.00,182.00 L 216.00,184.00 L 216.00,190.00 L 214.00,193.00 L 214.00,200.00 L 212.00,203.00 L 212.00,206.00 L 204.00,220.00 L 193.00,231.00 L 185.00,236.00 L 178.00,238.00 L 176.00,240.00 L 163.00,242.00 L 158.00,245.00 L 150.00,255.00 L 150.00,259.00 L 148.00,262.00 Z " fill="url(#innerGradient)" fill-rule="evenodd" stroke="none" /></svg>